<svg width="16" height="16" viewBox="0 0 16 16" fill="none" xmlns="http://www.w3.org/2000/svg">
<path d="M2.43311 6.08951C2.43311 4.62103 2.43311 3.88679 2.67152 3.29046C2.87067 2.79235 3.18497 2.3648 3.58104 2.05326C4.0552 1.68029 4.69153 1.54896 5.96421 1.28626C7.28757 1.0131 7.94931 0.876521 8.46424 1.09417C8.89204 1.27498 9.25244 1.61647 9.48571 2.06194C9.76644 2.59818 9.76644 3.36169 9.76644 4.8887V11.2509C9.76644 12.7779 9.76644 13.5414 9.48571 14.0776C9.25244 14.5231 8.89204 14.8646 8.46424 15.0454C7.94931 15.2631 7.28757 15.1264 5.96421 14.8533C4.69153 14.5906 4.0552 14.4593 3.58104 14.0863C3.18497 13.7748 2.87067 13.3472 2.67152 12.8491C2.43311 12.2528 2.43311 11.5185 2.43311 10.05V6.08951Z" stroke="#E40729" stroke-width="1.5"/>
<path d="M9.76514 13.5934C10.73 13.7 12.0317 14.0279 12.7235 13.0906C13.0985 12.5826 13.0985 11.8087 13.0985 10.2607V5.87849C13.0985 4.3306 13.0985 3.55666 12.7235 3.04862C12.0317 2.11141 10.73 2.43928 9.76514 2.54587" stroke="#E40729" stroke-width="1.5"/>
<path d="M7.76514 8.77812V7.36145" stroke="#E40729" stroke-width="1.5" stroke-linecap="round" stroke-linejoin="round"/>
<path d="M12.4331 13.5426H14.4331" stroke="#E40729" stroke-width="1.5" stroke-linecap="round" stroke-linejoin="round"/>
<path d="M1.09912 13.7366H3.09912" stroke="#E40729" stroke-width="1.5" stroke-linecap="round" stroke-linejoin="round"/>
</svg>
