<svg width="24" height="24" viewBox="0 0 24 24" fill="none" xmlns="http://www.w3.org/2000/svg">
<path d="M1 2.38508V18.6799C1 19.0454 1.202 19.3821 1.52905 19.536L8.23357 22.8834C8.52215 23.0277 8.85881 23.0181 9.13777 22.8546L14.9766 19.5167C15.2555 19.3532 15.5922 19.3436 15.8808 19.4879L21.7196 22.4121C22.3544 22.7295 23.1143 22.2678 23.1143 21.556V4.54938C23.1143 4.14538 22.8642 3.78947 22.4891 3.64519L15.7942 1.1346C15.5633 1.04803 15.3036 1.05765 15.0728 1.15384L9.0512 3.73176C8.82034 3.82795 8.57024 3.83757 8.32976 3.751L2.29858 1.49051C1.67334 1.25003 1 1.72137 1 2.3947V2.38508Z" stroke="currentColor" stroke-linecap="round" stroke-linejoin="round"/>
<path d="M8.69531 23.1239V3.88564" stroke="currentColor" stroke-linecap="round" stroke-linejoin="round"/>
<path d="M15.4287 19.2763V0.999969" stroke="currentColor" stroke-linecap="round" stroke-linejoin="round"/>
</svg>
