<svg width="20" height="18" viewBox="0 0 20 18" fill="none" xmlns="http://www.w3.org/2000/svg">
<path d="M2.53368 9.66465L9.4863 16.1959C9.72579 16.4209 9.84554 16.5334 9.98672 16.5611C10.0503 16.5735 10.1157 16.5735 10.1793 16.5611C10.3205 16.5334 10.4402 16.4209 10.6797 16.1959L17.6323 9.66465C19.5885 7.82703 19.8261 4.80304 18.1808 2.6825L17.8715 2.28378C15.9033 -0.252981 11.9526 0.172453 10.5697 3.07009C10.3743 3.4794 9.79169 3.4794 9.59634 3.07009C8.21338 0.172453 4.26273 -0.252977 2.29455 2.28378L1.9852 2.68251C0.339955 4.80304 0.577506 7.82703 2.53368 9.66465Z" stroke="currentColor"/>
</svg>
