<svg width="17" height="16" viewBox="0 0 17 16" fill="none" xmlns="http://www.w3.org/2000/svg">
<path d="M3.77539 13.625L3.02539 14.375M12.7754 13.625L13.5254 14.375" stroke="#E40729" stroke-width="1.5" stroke-linecap="round"/>
<path d="M1.52539 7.625V8.375C1.52539 10.8498 1.52539 12.0873 2.29424 12.8562C3.06308 13.625 4.30052 13.625 6.77539 13.625H9.77539C12.2502 13.625 13.4877 13.625 14.2566 12.8562C15.0254 12.0873 15.0254 10.8498 15.0254 8.375V7.625" stroke="#E40729" stroke-width="1.5" stroke-linecap="round" stroke-linejoin="round"/>
<path d="M0.775391 7.625H15.7754" stroke="#E40729" stroke-width="1.5" stroke-linecap="round"/>
<path d="M2.27539 7.625V2.76755C2.27539 1.72233 3.12272 0.875 4.16794 0.875C5.00664 0.875 5.7453 1.42699 5.98293 2.23131L6.02539 2.375" stroke="#E40729" stroke-width="1.5" stroke-linecap="round"/>
<path d="M5.27539 3.125L7.15039 1.625" stroke="#E40729" stroke-width="1.5" stroke-linecap="round"/>
</svg>
