<svg version="1.2" xmlns="http://www.w3.org/2000/svg" viewBox="0 0 310 79" width="310" height="79">
	<title>Logo blanco</title>
	<style>
		.s0 { fill: #ffffff } 
	</style>
	<g>
		<path class="s0" d="m29.2 34.4h-16.5l-2.7 6.8h-10.3l16.5-38.3h10.2l16.1 38.3h-10.7zm-2.9-7.6l-5.3-13.7-5.3 13.7c0 0 10.6 0 10.6 0z"/>
		<path class="s0" d="m68.9 41.2l-5.5-10.6h-7.5v10.6h-10v-38.3h17.3c10.1 0 15.9 4.9 15.9 13.4 0 5.8-2.4 10.1-6.8 12.4l8 12.5h-11.3zm-13-18.6h7.2c4.1 0 6.4-2 6.4-5.9 0-3.9-2.3-5.8-6.4-5.8h-7.2z"/>
		<path class="s0" d="m111 34.4h-16.5l-2.7 6.8h-10.3l16.5-38.3h10.2l16.1 38.3h-10.7zm-2.9-7.6l-5.3-13.7-5.3 13.7h10.6z"/>
		<path class="s0" d="m136.5 2.9l17.4 23.1v-23.1h9.3v38.3h-8.7l-17.4-22.9v22.9h-9.4v-38.3c0 0 8.8 0 8.8 0z"/>
		<path class="s0" d="m196.2 34.4h-16.6l-2.6 6.8h-10.3l16.4-38.3h10.3l16.1 38.3h-10.7l-2.6-6.8zm-3-7.6l-5.2-13.7-5.4 13.7z"/>
		<path class="s0" d="m222.9 2.9v29.8h16.2v8.5h-26.2v-38.3z"/>
		<path class="s0" d="m272.3 2.9v8h-18.6v8.5h17.2v8h-17.2v13.8h-10v-38.3z"/>
		<path class="s0" d="m307.1 2.9v8h-20.3l0.1 7.1h18.2v8h-18.3l0.1 7.2h20.7v8h-30.7v-38.3z"/>
	</g>
	<g>
		<path class="s0" d="m78.6 69.9h-6.6l-1.2 3h-2.3l5.7-13.1h2.3l5.7 13.1h-2.4l-1.2-3zm-0.8-1.9l-2.5-5.8-2.5 5.8c0 0 5 0 5 0z"/>
		<path class="s0" d="m86.1 59.8l7 9.4v-9.4h2.1v13.1h-2.1l-7-9.4v9.4h-2.2v-13.1z"/>
		<path class="s0" d="m107.6 59.8v2h-4.1v11.1h-2.2v-11.1h-4.2v-2z"/>
		<path class="s0" d="m121.4 66.4c0 3.7-3 6.6-6.9 6.6-3.9 0-6.9-2.9-6.9-6.6 0-3.8 3-6.6 6.9-6.6 3.9 0 6.9 2.8 6.9 6.6zm-11.6 0c0 2.6 2.2 4.6 4.7 4.6 2.6 0 4.7-2 4.7-4.6 0-2.6-2.1-4.6-4.7-4.6-2.5 0-4.7 2-4.7 4.6z"/>
		<path class="s0" d="m125.9 59.8l7 9.4v-9.4h2.2v13.1h-2.2l-6.9-9.4v9.4h-2.2v-13.1z"/>
		<path class="s0" d="m140.7 59.8v13.1h-2.2v-13.1z"/>
		<path class="s0" d="m156.9 66.4c0 3.7-3.1 6.6-6.9 6.6-3.9 0-6.9-2.9-6.9-6.6 0-3.8 3-6.6 6.9-6.6 3.8 0 6.9 2.8 6.9 6.6zm-11.6 0c0 2.6 2.1 4.6 4.7 4.6 2.5 0 4.6-2 4.6-4.6 0-2.6-2.1-4.6-4.6-4.6-2.6 0-4.7 2-4.7 4.6z"/>
		<path class="s0" d="m173.7 66.5h1.9v4.8c-1.3 1-3.2 1.7-5 1.7-3.9 0-6.9-2.9-6.9-6.6 0-3.8 3.1-6.6 7-6.6 1.9 0 3.7 0.7 5 1.8l-1.2 1.6c-1-0.9-2.4-1.5-3.8-1.5-2.6 0-4.7 2.1-4.7 4.7 0 2.6 2.1 4.6 4.7 4.6 1 0 2.1-0.3 3-0.9 0 0 0-3.6 0-3.6z"/>
		<path class="s0" d="m180.9 59.8v13.1h-2.2v-13.1z"/>
		<path class="s0" d="m186.5 59.8l7 9.4v-9.4h2.2v13.1h-2.2l-6.9-9.4v9.4h-2.2v-13.1z"/>
		<path class="s0" d="m208.4 59.8v2h-7.1v3.6h6.4v1.9h-6.4v3.6h7.4v2h-9.6v-13.1c0 0 9.3 0 9.3 0z"/>
		<path class="s0" d="m212.1 59.8l4 10.6 4-10.6h2.3l-5.2 13.1h-2.3l-5.2-13.1z"/>
		<path class="s0" d="m232.5 72.9l-2.4-4q-0.3 0.1-0.6 0.1h-3.1v3.9h-2.2v-13h5.3c3.3 0 5.2 1.6 5.2 4.4 0 2.1-0.9 3.6-2.7 4.2l3 4.4h-2.5zm-3-5.9c2 0 3.1-0.9 3.1-2.6 0-1.8-1.1-2.6-3.1-2.6h-3.1v5.2c0 0 3.1 0 3.1 0z"/>
		<path class="s0" d="m246.1 69.9h-6.6l-1.2 3h-2.3l5.7-13.1h2.3l5.7 13.1h-2.4c0 0-1.2-3-1.2-3zm-0.9-1.9l-2.4-5.8-2.5 5.8z"/>
	</g>
	<path class="s0" d="m318.6 6.8c0 2.2-1.7 3.9-3.9 3.9-2.2 0-3.9-1.7-3.9-3.9 0-2.2 1.7-3.9 3.9-3.9 2.2 0 3.9 1.7 3.9 3.9z"/>
</svg>