<svg width="16" height="15" viewBox="0 0 16 15" fill="none" xmlns="http://www.w3.org/2000/svg">
<path d="M3.5 13.6824C3.5 13.9586 3.72386 14.1824 4 14.1824C4.27614 14.1824 4.5 13.9586 4.5 13.6824L3.5 13.6824ZM4.35355 0.32888C4.15829 0.133618 3.84171 0.133618 3.64645 0.32888L0.464466 3.51086C0.269203 3.70612 0.269203 4.02271 0.464466 4.21797C0.659728 4.41323 0.97631 4.41323 1.17157 4.21797L4 1.38954L6.82843 4.21797C7.02369 4.41323 7.34027 4.41323 7.53553 4.21797C7.7308 4.02271 7.7308 3.70612 7.53553 3.51086L4.35355 0.32888ZM4.5 13.6824L4.5 0.682434L3.5 0.682434L3.5 13.6824L4.5 13.6824Z" fill="currentColor"/>
<path d="M12.5 0.682434C12.5 0.406292 12.2761 0.182434 12 0.182434C11.7239 0.182434 11.5 0.406292 11.5 0.682434L12.5 0.682434ZM11.6464 14.036C11.8417 14.2312 12.1583 14.2312 12.3536 14.036L15.5355 10.854C15.7308 10.6587 15.7308 10.3422 15.5355 10.1469C15.3403 9.95164 15.0237 9.95164 14.8284 10.1469L12 12.9753L9.17157 10.1469C8.97631 9.95164 8.65973 9.95164 8.46447 10.1469C8.2692 10.3422 8.2692 10.6587 8.46447 10.854L11.6464 14.036ZM11.5 0.682434L11.5 13.6824L12.5 13.6824L12.5 0.682434L11.5 0.682434Z" fill="currentColor"/>
</svg>
