<svg width="16" height="14" viewBox="0 0 16 14" fill="none" xmlns="http://www.w3.org/2000/svg">
<path d="M15.2114 9.8574H1.12939L2.44798 4.2821H13.8928L15.2114 9.8574Z" stroke="#E40729" stroke-linecap="round" stroke-linejoin="round"/>
<path d="M15.2114 9.85742H1.12939V11.7159H15.2114V9.85742Z" stroke="#E40729" stroke-linecap="round" stroke-linejoin="round"/>
<path d="M1.77002 11.7158V12.9548" stroke="#E40729" stroke-width="1.5" stroke-linecap="round" stroke-linejoin="round"/>
<path d="M14.5728 11.7158V12.9548" stroke="#E40729" stroke-width="1.5" stroke-linecap="round" stroke-linejoin="round"/>
<path d="M8.16951 4.28213H2.40869V3.22902C2.40869 1.92811 3.49685 0.875 4.84104 0.875H5.73076C7.07495 0.875 8.1631 1.92811 8.1631 3.22902V4.28213H8.16951Z" stroke="#E40729" stroke-width="1.5" stroke-linecap="round" stroke-linejoin="round"/>
<path d="M13.9312 4.28201H8.17041V3.22889C8.17041 1.92799 9.25856 0.874878 10.6028 0.874878H11.4925C12.8367 0.874878 13.9248 1.92799 13.9248 3.22889V4.28201H13.9312Z" stroke="#E40729" stroke-width="1.5" stroke-linecap="round" stroke-linejoin="round"/>
</svg>
