<svg width="25" height="25" viewBox="0 0 25 25" fill="none" xmlns="http://www.w3.org/2000/svg">
<path d="M2.84912 16.5726L8.00812 11.4136C8.21705 11.2046 8.46509 11.0389 8.73808 10.9258C9.01106 10.8128 9.30364 10.7546 9.59912 10.7546C9.8946 10.7546 10.1872 10.8128 10.4602 10.9258C10.7331 11.0389 10.9812 11.2046 11.1901 11.4136L16.3491 16.5726M14.8491 15.0726L16.2581 13.6636C16.4671 13.4546 16.7151 13.2889 16.9881 13.1758C17.2611 13.0628 17.5536 13.0046 17.8491 13.0046C18.1446 13.0046 18.4372 13.0628 18.7102 13.1758C18.9831 13.2889 19.2312 13.4546 19.4401 13.6636L22.3491 16.5726M4.34912 20.3226H20.8491C21.2469 20.3226 21.6285 20.1645 21.9098 19.8832C22.1911 19.6019 22.3491 19.2204 22.3491 18.8226V6.82257C22.3491 6.42475 22.1911 6.04322 21.9098 5.76191C21.6285 5.48061 21.2469 5.32257 20.8491 5.32257H4.34912C3.9513 5.32257 3.56977 5.48061 3.28846 5.76191C3.00716 6.04322 2.84912 6.42475 2.84912 6.82257V18.8226C2.84912 19.2204 3.00716 19.6019 3.28846 19.8832C3.56977 20.1645 3.9513 20.3226 4.34912 20.3226ZM14.8491 9.07257H14.8571V9.08057H14.8491V9.07257ZM15.2241 9.07257C15.2241 9.17203 15.1846 9.26741 15.1143 9.33774C15.044 9.40806 14.9486 9.44757 14.8491 9.44757C14.7497 9.44757 14.6543 9.40806 14.584 9.33774C14.5136 9.26741 14.4741 9.17203 14.4741 9.07257C14.4741 8.97311 14.5136 8.87773 14.584 8.80741C14.6543 8.73708 14.7497 8.69757 14.8491 8.69757C14.9486 8.69757 15.044 8.73708 15.1143 8.80741C15.1846 8.87773 15.2241 8.97311 15.2241 9.07257Z" stroke="currentColor" stroke-width="1.5" stroke-linecap="round" stroke-linejoin="round"/>
</svg>
