<svg width="28" height="25" viewBox="0 0 28 25" fill="none" xmlns="http://www.w3.org/2000/svg">
<path d="M2.34912 11.1641C2.34912 7.86423 2.34912 6.21431 3.50239 5.18919C4.65565 4.16406 6.51181 4.16406 10.2241 4.16406H11.3491C15.0614 4.16406 16.9175 4.16406 18.0709 5.18919C19.2241 6.21431 19.2241 7.86423 19.2241 11.1641V13.1641C19.2241 16.4639 19.2241 18.1138 18.0709 19.139C16.9175 20.1641 15.0614 20.1641 11.3491 20.1641H10.2241C6.51181 20.1641 4.65565 20.1641 3.50239 19.139C2.34912 18.1138 2.34912 16.4639 2.34912 13.1641V11.1641Z" stroke="currentColor" stroke-width="1.5"/>
<path d="M19.2241 9.06992L19.3658 8.96602C21.746 7.22029 22.9362 6.34742 23.8926 6.76888C24.8491 7.19034 24.8491 8.58761 24.8491 11.3822V12.946C24.8491 15.7406 24.8491 17.1378 23.8926 17.5593C22.9362 17.9807 21.746 17.1079 19.3658 15.3621L19.2241 15.2582" stroke="currentColor" stroke-width="1.5" stroke-linecap="round"/>
<path d="M13.0366 11.1641C13.9686 11.1641 14.7241 10.4925 14.7241 9.66406C14.7241 8.83564 13.9686 8.16406 13.0366 8.16406C12.1046 8.16406 11.3491 8.83564 11.3491 9.66406C11.3491 10.4925 12.1046 11.1641 13.0366 11.1641Z" stroke="currentColor" stroke-width="1.5"/>
</svg>
