<svg width="15" height="15" viewBox="0 0 15 15" fill="none" xmlns="http://www.w3.org/2000/svg">
<g clip-path="url(#clip0_402_1897)">
<path d="M7.2957 8.87334L10.6965 12.2742C10.9882 12.5565 11.3792 12.7129 11.7851 12.7096C12.191 12.7063 12.5794 12.5436 12.8664 12.2566C13.1535 11.9695 13.3162 11.5811 13.3195 11.1752C13.3228 10.7693 13.1664 10.3783 12.884 10.0867L9.45578 6.65842M7.2957 8.87334L8.7517 7.10584C8.93661 6.88184 9.18336 6.74067 9.45636 6.659C9.7772 6.56334 10.1348 6.54934 10.4731 6.57734C10.9292 6.6165 11.3876 6.53572 11.8028 6.34302C12.218 6.15032 12.5756 5.85239 12.8401 5.47881C13.1046 5.10522 13.2668 4.66896 13.3106 4.21332C13.3545 3.75768 13.2784 3.2985 13.0899 2.88134L11.1789 4.79292C10.8592 4.71899 10.5667 4.55677 10.3346 4.32472C10.1026 4.09268 9.94038 3.80014 9.86645 3.48042L11.7774 1.56942C11.3603 1.38098 10.9011 1.3049 10.4455 1.34874C9.98982 1.39257 9.55356 1.55478 9.17998 1.81929C8.80639 2.0838 8.50847 2.44139 8.31576 2.8566C8.12306 3.27181 8.04229 3.73019 8.08145 4.18625C8.13453 4.81392 8.04003 5.50692 7.55411 5.90709L7.49461 5.95667M7.2957 8.87334L4.58028 12.1709C4.44868 12.3313 4.28494 12.4624 4.09961 12.5557C3.91428 12.6491 3.71147 12.7025 3.50422 12.7127C3.29698 12.7229 3.08989 12.6896 2.8963 12.615C2.7027 12.5403 2.52688 12.4259 2.38016 12.2792C2.23344 12.1325 2.11906 11.9567 2.04439 11.7631C1.96973 11.5695 1.93642 11.3624 1.94662 11.1551C1.95682 10.9479 2.0103 10.7451 2.10362 10.5598C2.19694 10.3744 2.32803 10.2107 2.48845 10.0791L6.4767 6.79492L4.08095 4.39917H3.25903L1.94653 2.21167L2.82153 1.33667L5.00903 2.64917V3.47109L7.49403 5.95609L6.47611 6.79434M11.3528 10.7429L9.82153 9.21167M3.47311 11.1804H3.47778V11.1851H3.47311V11.1804Z" stroke="#E40729" stroke-width="0.9" stroke-linecap="round" stroke-linejoin="round"/>
</g>
<defs>
<clipPath id="clip0_402_1897">
<rect width="14" height="14" fill="white" transform="translate(0.634277 0.0241699)"/>
</clipPath>
</defs>
</svg>
