<svg width="16" height="17" viewBox="0 0 16 17" fill="none" xmlns="http://www.w3.org/2000/svg">
<g clip-path="url(#clip0_644_896)">
<path d="M0.666667 3.84933H2.49067C2.63376 4.37581 2.94612 4.84059 3.37955 5.17195C3.81299 5.50331 4.34341 5.68283 4.889 5.68283C5.43459 5.68283 5.96501 5.50331 6.39845 5.17195C6.83188 4.84059 7.14424 4.37581 7.28733 3.84933H15.3333C15.5101 3.84933 15.6797 3.77909 15.8047 3.65406C15.9298 3.52904 16 3.35947 16 3.18266C16 3.00585 15.9298 2.83628 15.8047 2.71126C15.6797 2.58623 15.5101 2.51599 15.3333 2.51599H7.28733C7.14424 1.98951 6.83188 1.52473 6.39845 1.19337C5.96501 0.862015 5.43459 0.682487 4.889 0.682487C4.34341 0.682487 3.81299 0.862015 3.37955 1.19337C2.94612 1.52473 2.63376 1.98951 2.49067 2.51599H0.666667C0.489856 2.51599 0.320286 2.58623 0.195262 2.71126C0.0702379 2.83628 0 3.00585 0 3.18266C0 3.35947 0.0702379 3.52904 0.195262 3.65406C0.320286 3.77909 0.489856 3.84933 0.666667 3.84933ZM4.88867 2.01599C5.11941 2.01599 5.34497 2.08442 5.53683 2.21261C5.72869 2.34081 5.87822 2.52302 5.96653 2.7362C6.05483 2.94938 6.07793 3.18395 6.03292 3.41027C5.9879 3.63658 5.87679 3.84446 5.71362 4.00762C5.55046 4.17078 5.34258 4.28189 5.11627 4.32691C4.88996 4.37193 4.65538 4.34882 4.4422 4.26052C4.22902 4.17222 4.04681 4.02268 3.91862 3.83083C3.79042 3.63897 3.722 3.41341 3.722 3.18266C3.72235 2.87335 3.84538 2.57681 4.0641 2.35809C4.28281 2.13938 4.57936 2.01635 4.88867 2.01599Z" fill="currentColor"/>
<path d="M15.3333 8.01518H13.5093C13.3665 7.48857 13.0542 7.02362 12.6208 6.69213C12.1874 6.36063 11.657 6.18102 11.1113 6.18102C10.5657 6.18102 10.0352 6.36063 9.60182 6.69213C9.16842 7.02362 8.85619 7.48857 8.71333 8.01518H0.666667C0.489856 8.01518 0.320286 8.08541 0.195262 8.21044C0.0702379 8.33546 0 8.50503 0 8.68184C0 8.85865 0.0702379 9.02822 0.195262 9.15324C0.320286 9.27827 0.489856 9.34851 0.666667 9.34851H8.71333C8.85619 9.87512 9.16842 10.3401 9.60182 10.6716C10.0352 11.003 10.5657 11.1827 11.1113 11.1827C11.657 11.1827 12.1874 11.003 12.6208 10.6716C13.0542 10.3401 13.3665 9.87512 13.5093 9.34851H15.3333C15.5101 9.34851 15.6797 9.27827 15.8047 9.15324C15.9298 9.02822 16 8.85865 16 8.68184C16 8.50503 15.9298 8.33546 15.8047 8.21044C15.6797 8.08541 15.5101 8.01518 15.3333 8.01518ZM11.1113 9.84851C10.8806 9.84851 10.655 9.78008 10.4632 9.65189C10.2713 9.52369 10.1218 9.34148 10.0335 9.1283C9.94517 8.91512 9.92207 8.68055 9.96708 8.45424C10.0121 8.22793 10.1232 8.02005 10.2864 7.85688C10.4495 7.69372 10.6574 7.58261 10.8837 7.53759C11.11 7.49258 11.3446 7.51568 11.5578 7.60398C11.771 7.69229 11.9532 7.84182 12.0814 8.03368C12.2096 8.22553 12.278 8.4511 12.278 8.68184C12.2776 8.99115 12.1546 9.28769 11.9359 9.50641C11.7172 9.72512 11.4206 9.84815 11.1113 9.84851Z" fill="currentColor"/>
<path d="M15.3333 13.516H7.28733C7.14424 12.9895 6.83188 12.5247 6.39845 12.1934C5.96501 11.862 5.43459 11.6825 4.889 11.6825C4.34341 11.6825 3.81299 11.862 3.37955 12.1934C2.94612 12.5247 2.63376 12.9895 2.49067 13.516H0.666667C0.489856 13.516 0.320286 13.5862 0.195262 13.7112C0.0702379 13.8363 0 14.0058 0 14.1826C0 14.3595 0.0702379 14.529 0.195262 14.654C0.320286 14.7791 0.489856 14.8493 0.666667 14.8493H2.49067C2.63376 15.3758 2.94612 15.8406 3.37955 16.1719C3.81299 16.5033 4.34341 16.6828 4.889 16.6828C5.43459 16.6828 5.96501 16.5033 6.39845 16.1719C6.83188 15.8406 7.14424 15.3758 7.28733 14.8493H15.3333C15.5101 14.8493 15.6797 14.7791 15.8047 14.654C15.9298 14.529 16 14.3595 16 14.1826C16 14.0058 15.9298 13.8363 15.8047 13.7112C15.6797 13.5862 15.5101 13.516 15.3333 13.516ZM4.88867 15.3493C4.65792 15.3493 4.43236 15.2809 4.2405 15.1527C4.04864 15.0245 3.89911 14.8423 3.81081 14.6291C3.72251 14.4159 3.6994 14.1813 3.74442 13.955C3.78943 13.7287 3.90055 13.5208 4.06371 13.3577C4.22687 13.1945 4.43475 13.0834 4.66106 13.0384C4.88737 12.9934 5.12195 13.0165 5.33513 13.1048C5.54831 13.1931 5.73052 13.3426 5.85871 13.5345C5.98691 13.7263 6.05533 13.9519 6.05533 14.1826C6.0548 14.4919 5.93172 14.7883 5.71304 15.007C5.49436 15.2257 5.19792 15.3488 4.88867 15.3493Z" fill="currentColor"/>
</g>
<defs>
<clipPath id="clip0_644_896">
<rect y="0.682434" width="16" height="16" rx="6" fill="white"/>
</clipPath>
</defs>
</svg>
