<svg width="35" height="33" viewBox="0 0 35 33" fill="none" xmlns="http://www.w3.org/2000/svg">
<path d="M1.61475 12.5909H19.885" stroke="#E40729" stroke-width="2.5" stroke-linecap="round" stroke-linejoin="round"/>
<path d="M26.5287 12.5909H33.1724" stroke="#E40729" stroke-width="2.5" stroke-linecap="round" stroke-linejoin="round"/>
<path d="M13.2396 31.2763V12.5909" stroke="#E40729" stroke-width="2.5"/>
<path d="M13.2396 7.91953V1.69104" stroke="#E40729" stroke-width="2.5" stroke-linecap="round" stroke-linejoin="round"/>
<path d="M25.6982 24.2693C22.3764 24.2693 19.0545 26.7954 19.0545 31.2764H14.9022C8.63842 31.2764 5.50655 31.2764 3.56064 29.452C1.61475 27.6279 1.61475 24.6916 1.61475 18.8194V14.148C1.61475 8.27574 1.61475 5.33961 3.56064 3.51532C5.50655 1.69104 8.63842 1.69104 14.9022 1.69104H19.885C26.1487 1.69104 29.2807 1.69104 31.2265 3.51532C33.1724 5.33961 33.1724 8.27574 33.1724 14.148V25.5823C33.1724 28.727 30.4531 31.2764 27.0987 31.2764" stroke="#E40729" stroke-width="2.5" stroke-linecap="round" stroke-linejoin="round"/>
</svg>
