<svg width="25" height="25" viewBox="0 0 25 25" fill="none" xmlns="http://www.w3.org/2000/svg">
<path d="M15.0991 10.6641C15.0991 11.4597 14.7831 12.2228 14.2204 12.7854C13.6578 13.348 12.8948 13.6641 12.0991 13.6641C11.3035 13.6641 10.5404 13.348 9.9778 12.7854C9.41519 12.2228 9.09912 11.4597 9.09912 10.6641C9.09912 9.86841 9.41519 9.10535 9.9778 8.54274C10.5404 7.98013 11.3035 7.66406 12.0991 7.66406C12.8948 7.66406 13.6578 7.98013 14.2204 8.54274C14.7831 9.10535 15.0991 9.86841 15.0991 10.6641Z" stroke="currentColor" stroke-width="1.5" stroke-linecap="round" stroke-linejoin="round"/>
<path d="M19.5991 10.6641C19.5991 17.8061 12.0991 21.9141 12.0991 21.9141C12.0991 21.9141 4.59912 17.8061 4.59912 10.6641C4.59912 8.67494 5.3893 6.76728 6.79582 5.36076C8.20234 3.95424 10.11 3.16406 12.0991 3.16406C14.0882 3.16406 15.9959 3.95424 17.4024 5.36076C18.8089 6.76728 19.5991 8.67494 19.5991 10.6641Z" stroke="currentColor" stroke-width="1.5" stroke-linecap="round" stroke-linejoin="round"/>
</svg>
