<svg width="34" height="34" viewBox="0 0 34 34" fill="none" xmlns="http://www.w3.org/2000/svg">
<path d="M32.4918 23.3443C32.0246 22.4099 31.0696 21.8197 30.025 21.8197H4.46683C3.42218 21.8197 2.46718 22.4099 2 23.3443" stroke="#E40729" stroke-width="2.5" stroke-linecap="round"/>
<path d="M3.52307 32.4916H30.9657" stroke="#E40729" stroke-width="2.5" stroke-linecap="round"/>
<path d="M6.57373 21.8197V32.4918M13.4344 21.8197V32.4918M21.0573 21.8197V32.4918M27.918 21.8197V32.4918" stroke="#E40729" stroke-width="2.5" stroke-linecap="round"/>
<path d="M17.2458 9.62289L21.8196 3.52454M17.2458 9.62289H8.8606M17.2458 9.62289H25.6311M17.2458 9.62289L12.6721 3.52454" stroke="#E40729" stroke-width="2.5" stroke-linecap="round"/>
<path d="M8.09717 11.1475C8.09717 6.09549 12.1927 2 17.2447 2C22.2967 2 26.3922 6.09549 26.3922 11.1475V21.8196H8.09717V11.1475Z" stroke="#E40729" stroke-width="2.5" stroke-linecap="round" stroke-linejoin="round"/>
</svg>
